<svg xmlns="http://www.w3.org/2000/svg" width="155" height="40" fill="none"><path fill="#54BD95" d="M.587 39V2.636h13.92c2.628 0 4.812.415 6.552 1.243 1.752.817 3.06 1.936 3.924 3.356.876 1.42 1.314 3.03 1.314 4.83 0 1.48-.284 2.746-.852 3.8a7.168 7.168 0 0 1-2.29 2.538 9.694 9.694 0 0 1-3.215 1.403v.355c1.29.071 2.528.468 3.711 1.19 1.196.71 2.172 1.716 2.93 3.018.758 1.302 1.136 2.877 1.136 4.723 0 1.882-.455 3.575-1.367 5.078-.911 1.492-2.284 2.67-4.12 3.534-1.834.864-4.142 1.296-6.924 1.296H.586Zm6.587-5.504h7.084c2.392 0 4.114-.456 5.167-1.367 1.066-.924 1.598-2.107 1.598-3.552 0-1.077-.266-2.047-.799-2.912-.532-.875-1.29-1.562-2.272-2.06-.983-.508-2.155-.763-3.516-.763H7.174v10.654Zm0-15.394h6.516c1.137 0 2.16-.208 3.072-.622.912-.426 1.628-1.024 2.148-1.793.533-.781.8-1.705.8-2.77 0-1.409-.498-2.569-1.492-3.48-.982-.912-2.444-1.367-4.386-1.367H7.174v10.032ZM33.164 39V11.727h6.427V39h-6.427Zm3.231-31.143c-1.018 0-1.894-.338-2.627-1.013-.734-.686-1.101-1.509-1.101-2.468 0-.97.367-1.793 1.1-2.468.734-.686 1.61-1.03 2.628-1.03 1.03 0 1.906.344 2.628 1.03.734.675 1.101 1.498 1.101 2.468 0 .96-.367 1.782-1.1 2.468-.723.675-1.599 1.013-2.629 1.013Zm21.702 31.676c-2.722 0-5.06-.598-7.013-1.794-1.942-1.195-3.439-2.846-4.492-4.953-1.042-2.12-1.563-4.558-1.563-7.316 0-2.77.533-5.214 1.598-7.333 1.066-2.13 2.569-3.788 4.51-4.972 1.953-1.195 4.261-1.793 6.925-1.793 2.213 0 4.172.409 5.877 1.225 1.716.805 3.083 1.947 4.101 3.427 1.018 1.468 1.598 3.184 1.74 5.15h-6.143c-.248-1.315-.84-2.41-1.776-3.285-.923-.888-2.16-1.332-3.71-1.332-1.314 0-2.469.355-3.463 1.065-.994.698-1.77 1.705-2.326 3.019-.544 1.314-.817 2.888-.817 4.723 0 1.858.273 3.456.817 4.794.545 1.325 1.308 2.35 2.29 3.071.995.71 2.161 1.066 3.499 1.066.946 0 1.793-.178 2.539-.533a5.106 5.106 0 0 0 1.9-1.58c.508-.687.858-1.521 1.047-2.504h6.144c-.154 1.93-.723 3.64-1.705 5.132-.982 1.48-2.32 2.64-4.013 3.48-1.693.828-3.681 1.243-5.966 1.243Zm28.858 0c-2.723 0-5.06-.598-7.014-1.794-1.941-1.195-3.439-2.846-4.492-4.953-1.042-2.12-1.563-4.558-1.563-7.316 0-2.77.533-5.214 1.599-7.333 1.065-2.13 2.568-3.788 4.51-4.972 1.953-1.195 4.26-1.793 6.924-1.793 2.214 0 4.173.409 5.877 1.225 1.717.805 3.084 1.947 4.102 3.427 1.018 1.468 1.598 3.184 1.74 5.15h-6.144c-.248-1.315-.84-2.41-1.775-3.285-.923-.888-2.16-1.332-3.711-1.332-1.314 0-2.468.355-3.462 1.065-.995.698-1.77 1.705-2.326 3.019-.545 1.314-.817 2.888-.817 4.723 0 1.858.272 3.456.817 4.794.544 1.325 1.308 2.35 2.29 3.071.994.71 2.16 1.066 3.498 1.066.947 0 1.793-.178 2.54-.533a5.106 5.106 0 0 0 1.899-1.58c.509-.687.858-1.521 1.047-2.504h6.144c-.154 1.93-.722 3.64-1.705 5.132-.982 1.48-2.32 2.64-4.012 3.48-1.693.828-3.682 1.243-5.966 1.243Zm24.809.017c-1.728 0-3.285-.307-4.67-.923-1.373-.627-2.462-1.55-3.267-2.77-.793-1.219-1.19-2.722-1.19-4.51 0-1.539.285-2.811.853-3.817a6.59 6.59 0 0 1 2.326-2.415c.982-.604 2.089-1.06 3.32-1.367 1.243-.32 2.527-.55 3.853-.693 1.598-.165 2.894-.313 3.888-.444.995-.142 1.717-.355 2.167-.639.461-.296.692-.751.692-1.367V20.5c0-1.338-.396-2.374-1.189-3.108-.794-.734-1.936-1.1-3.427-1.1-1.575 0-2.823.343-3.747 1.03-.911.686-1.527 1.497-1.846 2.432l-6.002-.852c.474-1.658 1.255-3.043 2.344-4.155 1.089-1.125 2.421-1.965 3.995-2.522 1.574-.568 3.314-.852 5.22-.852 1.314 0 2.622.154 3.924.462 1.302.308 2.492.817 3.569 1.527 1.077.698 1.941 1.651 2.592 2.858.663 1.208.995 2.717.995 4.528V39h-6.179v-3.746h-.213c-.391.757-.941 1.467-1.652 2.13-.698.651-1.58 1.178-2.645 1.58-1.054.391-2.291.586-3.711.586Zm1.669-4.723c1.29 0 2.409-.254 3.356-.763.947-.52 1.675-1.208 2.184-2.06.52-.852.781-1.781.781-2.787v-3.214c-.201.166-.545.32-1.03.462-.473.142-1.006.266-1.598.372-.592.107-1.178.202-1.758.284-.58.083-1.083.154-1.509.213-.959.13-1.817.344-2.575.64-.757.296-1.355.71-1.793 1.243-.438.52-.657 1.195-.657 2.024 0 1.184.432 2.077 1.296 2.68.864.605 1.965.906 3.303.906Zm40.749-15.89-5.859.638a4.718 4.718 0 0 0-.87-1.669c-.403-.52-.947-.94-1.634-1.26-.686-.32-1.527-.48-2.521-.48-1.338 0-2.462.29-3.374.87-.899.58-1.343 1.332-1.331 2.255-.012.793.278 1.438.87 1.936.603.497 1.598.905 2.983 1.225l4.652.994c2.58.556 4.498 1.438 5.752 2.646 1.267 1.207 1.906 2.787 1.918 4.74-.012 1.717-.515 3.232-1.509 4.546-.983 1.302-2.35 2.32-4.102 3.054-1.752.734-3.764 1.1-6.037 1.1-3.338 0-6.025-.698-8.061-2.094-2.036-1.41-3.249-3.368-3.64-5.878l6.268-.603c.284 1.23.888 2.16 1.811 2.787.924.628 2.125.941 3.605.941 1.527 0 2.752-.313 3.675-.94.935-.628 1.403-1.403 1.403-2.327 0-.78-.302-1.426-.906-1.935-.592-.509-1.515-.9-2.77-1.172l-4.652-.977c-2.616-.544-4.551-1.461-5.806-2.752-1.255-1.302-1.876-2.947-1.864-4.936-.012-1.68.444-3.137 1.367-4.368.935-1.242 2.231-2.201 3.889-2.876 1.669-.687 3.592-1.03 5.77-1.03 3.196 0 5.712.68 7.546 2.042 1.847 1.361 2.989 3.202 3.427 5.522Z"/></svg>