<svg xmlns="http://www.w3.org/2000/svg" width="154" height="36" fill="none"><path fill="#A6A6A6" fill-rule="evenodd" d="M17.071 4.417C18.946 5.325 20 6.555 20 7.84H0c0-1.284 1.054-2.514 2.929-3.422C4.804 3.51 7.348 3 10 3s5.196.51 7.071 1.417ZM2.93 31.583C1.054 30.675 0 29.445 0 28.16h20c0 1.284-1.054 2.514-2.929 3.422C15.196 32.49 12.652 33 10 33s-5.196-.51-7.071-1.417ZM23 20.419v3.871h-6v-3.87h6ZM6 11.71H0v3.872h6V11.71Zm5 0h12v3.872H11V11.71Zm1 8.71H0v3.871h12v-3.87Z" clip-rule="evenodd"/><path fill="#A6A6A6" d="M41.054 29.288c-1.285 0-2.436-.33-3.452-.991-1.015-.66-1.818-1.62-2.407-2.877-.59-1.257-.885-2.784-.885-4.58 0-1.819.299-3.353.895-4.603.604-1.257 1.417-2.205 2.44-2.844 1.023-.647 2.162-.97 3.42-.97.958 0 1.747.164 2.365.49.618.32 1.108.707 1.47 1.162a7.1 7.1 0 0 1 .842 1.267h.16v-8.16h3.867V29h-3.793v-2.578h-.234c-.2.398-.487.82-.863 1.268-.377.44-.874.816-1.492 1.129-.618.312-1.395.469-2.333.469Zm1.076-3.164c.817 0 1.513-.22 2.088-.66.575-.448 1.012-1.07 1.31-1.865.299-.796.448-1.723.448-2.78 0-1.06-.15-1.979-.448-2.76-.29-.781-.724-1.389-1.3-1.822-.568-.433-1.267-.65-2.098-.65-.86 0-1.577.224-2.152.672-.575.447-1.009 1.065-1.3 1.853-.29.789-.436 1.69-.436 2.706 0 1.023.145 1.936.436 2.738.299.796.735 1.424 1.31 1.886.583.454 1.297.682 2.142.682Zm18.992 3.196c-1.64 0-3.057-.341-4.25-1.023-1.187-.689-2.1-1.662-2.738-2.92-.64-1.263-.96-2.751-.96-4.463 0-1.683.32-3.16.96-4.432.646-1.278 1.548-2.272 2.706-2.983 1.157-.717 2.517-1.076 4.08-1.076 1.008 0 1.96.164 2.855.49.902.32 1.697.817 2.386 1.492.696.675 1.243 1.534 1.641 2.578.398 1.037.597 2.273.597 3.707v1.183H54.986v-2.6h9.716c-.007-.738-.167-1.395-.48-1.97a3.486 3.486 0 0 0-1.31-1.375c-.554-.334-1.2-.5-1.939-.5-.788 0-1.48.191-2.077.575a3.964 3.964 0 0 0-1.396 1.491 4.292 4.292 0 0 0-.5 2.014v2.269c0 .952.173 1.768.522 2.45a3.724 3.724 0 0 0 1.459 1.556c.625.355 1.356.532 2.195.532.56 0 1.069-.078 1.523-.234a3.381 3.381 0 0 0 1.183-.714c.333-.312.586-.7.756-1.161l3.6.405a5.614 5.614 0 0 1-1.299 2.493c-.632.703-1.442 1.25-2.429 1.64-.987.384-2.116.576-3.388.576Zm23.472-12.358-3.515.383a2.823 2.823 0 0 0-.522-1.001 2.59 2.59 0 0 0-.98-.757c-.412-.191-.916-.287-1.513-.287-.803 0-1.477.174-2.024.522-.54.348-.806.799-.8 1.353-.006.476.168.863.523 1.16.362.3.959.544 1.79.736l2.79.597c1.549.333 2.7.863 3.453 1.587.76.724 1.143 1.673 1.15 2.844-.007 1.03-.309 1.94-.906 2.728-.589.781-1.41 1.392-2.46 1.832-1.052.44-2.259.66-3.623.66-2.002 0-3.615-.418-4.836-1.256-1.222-.846-1.95-2.021-2.184-3.527l3.76-.362c.17.739.533 1.296 1.087 1.673.554.376 1.275.564 2.163.564.916 0 1.651-.188 2.205-.564.561-.377.842-.842.842-1.396 0-.469-.181-.856-.544-1.161-.355-.306-.909-.54-1.662-.703L75.998 22c-1.57-.327-2.732-.877-3.485-1.652-.752-.78-1.125-1.768-1.118-2.961-.007-1.009.266-1.882.82-2.621.561-.746 1.339-1.321 2.333-1.726 1.002-.412 2.156-.618 3.463-.618 1.917 0 3.427.409 4.527 1.225 1.108.817 1.794 1.922 2.056 3.314Zm10.67 12.358c-1.634 0-3.036-.36-4.208-1.076-1.165-.718-2.063-1.709-2.696-2.973-.625-1.271-.937-2.734-.937-4.389 0-1.662.32-3.128.959-4.4.639-1.278 1.54-2.272 2.706-2.983 1.172-.717 2.556-1.076 4.155-1.076 1.328 0 2.503.245 3.526.735 1.03.483 1.85 1.169 2.461 2.056.611.881.959 1.911 1.044 3.09h-3.686a3.524 3.524 0 0 0-1.066-1.97c-.554-.534-1.296-.8-2.226-.8-.789 0-1.481.213-2.078.64-.596.418-1.061 1.022-1.395 1.81-.327.789-.49 1.733-.49 2.834 0 1.115.163 2.074.49 2.877.327.795.785 1.41 1.374 1.843.597.426 1.296.639 2.099.639.568 0 1.076-.107 1.523-.32.455-.22.835-.536 1.14-.948.306-.412.515-.913.629-1.502h3.686c-.093 1.158-.433 2.184-1.023 3.079-.589.888-1.392 1.584-2.408 2.088-1.015.497-2.208.746-3.58.746ZM105.44 29V12.636h3.739v2.728h.17c.299-.945.81-1.673 1.534-2.184.732-.519 1.566-.778 2.504-.778.213 0 .451.01.714.032.27.014.493.039.671.075v3.547c-.163-.057-.423-.106-.778-.149a7.14 7.14 0 0 0-1.012-.075c-.703 0-1.335.153-1.896.459a3.357 3.357 0 0 0-1.311 1.246c-.319.533-.479 1.147-.479 1.843V29h-3.856Zm11.894 0V12.636h3.857V29h-3.857Zm1.939-18.686a2.251 2.251 0 0 1-1.577-.607c-.44-.412-.66-.906-.66-1.481 0-.583.22-1.076.66-1.481a2.23 2.23 0 0 1 1.577-.618c.618 0 1.143.206 1.577.618.44.405.66.898.66 1.48 0 .576-.22 1.07-.66 1.482-.434.404-.959.607-1.577.607Zm5.883 24.822v-22.5h3.793v2.706h.224a7.11 7.11 0 0 1 .841-1.267c.362-.455.853-.842 1.47-1.162.618-.326 1.407-.49 2.365-.49 1.265 0 2.405.323 3.42.97 1.023.639 1.833 1.587 2.429 2.844.604 1.25.906 2.784.906 4.603 0 1.796-.295 3.323-.884 4.58-.59 1.258-1.393 2.216-2.408 2.877-1.016.66-2.166.99-3.452.99-.937 0-1.715-.156-2.333-.468-.618-.313-1.115-.689-1.491-1.13a7.275 7.275 0 0 1-.863-1.267h-.16v8.714h-3.857Zm3.782-14.318c0 1.058.149 1.985.448 2.78.305.796.742 1.418 1.31 1.865.575.44 1.271.66 2.088.66.852 0 1.566-.227 2.141-.681.576-.462 1.009-1.09 1.3-1.886.299-.802.448-1.715.448-2.738 0-1.015-.146-1.917-.437-2.706-.291-.788-.725-1.406-1.3-1.853-.575-.448-1.292-.672-2.152-.672-.824 0-1.523.217-2.099.65-.575.434-1.012 1.04-1.31 1.822-.291.781-.437 1.7-.437 2.76Zm23.139-8.182v2.983h-9.406v-2.983h9.406Zm-7.084-3.92h3.856v15.362c0 .519.079.916.235 1.193.163.27.376.455.639.554.263.1.554.15.874.15.241 0 .461-.018.66-.054.206-.035.362-.067.469-.096l.65 3.015c-.206.071-.501.15-.884.235a7.256 7.256 0 0 1-1.385.149c-.966.028-1.836-.117-2.61-.437a4.06 4.06 0 0 1-1.844-1.513c-.447-.682-.667-1.534-.66-2.557V8.716Z"/></svg>