<svg xmlns="http://www.w3.org/2000/svg" width="196" height="36" fill="none"><circle cx="15" cy="18" r="15" fill="#A6A6A6"/><path stroke="#fff" stroke-width="2" d="M21 18a7 7 0 1 1-2-4.899"/><path stroke="#fff" stroke-width="2" d="m17 20 4-2 2.5 3.5"/><path fill="#A6A6A6" d="M49.098 35.477c-1.385 0-2.575-.188-3.569-.564-.994-.37-1.793-.867-2.397-1.492-.604-.625-1.023-1.317-1.257-2.077l3.473-.842c.156.32.383.636.682.948.298.32.7.583 1.204.789.511.213 1.154.32 1.928.32 1.094 0 2-.267 2.717-.8.717-.525 1.076-1.392 1.076-2.6v-3.1h-.192c-.2.398-.49.807-.874 1.226-.376.419-.877.77-1.502 1.055-.618.284-1.395.426-2.333.426-1.257 0-2.397-.295-3.42-.885-1.015-.596-1.825-1.484-2.429-2.663-.596-1.186-.895-2.67-.895-4.453 0-1.797.299-3.313.895-4.55.604-1.242 1.417-2.183 2.44-2.822 1.023-.647 2.162-.97 3.42-.97.958 0 1.747.164 2.365.49.625.32 1.122.707 1.491 1.162.37.447.65.87.842 1.267h.213v-2.706h3.803v16.63c0 1.4-.334 2.557-1.001 3.473-.668.917-1.58 1.602-2.738 2.056-1.158.455-2.472.682-3.942.682Zm.032-9.737c.817 0 1.513-.199 2.088-.596.575-.398 1.012-.97 1.31-1.716.299-.745.448-1.64.448-2.684 0-1.03-.15-1.932-.448-2.706-.29-.774-.724-1.375-1.3-1.8-.568-.434-1.267-.65-2.098-.65-.86 0-1.577.223-2.152.67-.575.448-1.009 1.062-1.3 1.844-.29.774-.436 1.654-.436 2.642 0 1.001.145 1.878.436 2.631.299.746.735 1.328 1.31 1.747.583.412 1.297.618 2.142.618ZM60.731 29V12.636h3.74v2.728h.17c.299-.945.81-1.673 1.534-2.184.732-.519 1.567-.778 2.504-.778.213 0 .451.01.714.032.27.014.493.039.67.075v3.547c-.162-.057-.422-.106-.777-.149a7.143 7.143 0 0 0-1.012-.075c-.703 0-1.335.153-1.896.459-.554.298-.99.713-1.31 1.246-.32.533-.48 1.147-.48 1.843V29h-3.856Zm16.31.33c-1.036 0-1.97-.184-2.8-.554a4.572 4.572 0 0 1-1.961-1.662c-.476-.731-.714-1.633-.714-2.706 0-.923.17-1.686.511-2.29a3.957 3.957 0 0 1 1.396-1.449 7.042 7.042 0 0 1 1.992-.82c.746-.192 1.516-.33 2.312-.416.959-.1 1.736-.188 2.333-.266.597-.085 1.03-.213 1.3-.384.277-.177.415-.45.415-.82V17.9c0-.802-.238-1.424-.713-1.864-.476-.44-1.162-.66-2.057-.66-.944 0-1.694.205-2.248.617-.546.412-.916.899-1.107 1.46l-3.601-.512c.284-.994.753-1.825 1.406-2.493.653-.674 1.452-1.178 2.397-1.512.945-.341 1.989-.512 3.132-.512.788 0 1.573.093 2.354.277.782.185 1.495.49 2.142.917.646.418 1.165.99 1.555 1.715.398.724.597 1.63.597 2.716V29h-3.708v-2.248h-.127c-.235.455-.565.88-.991 1.279-.42.39-.948.706-1.587.948-.633.234-1.375.351-2.227.351Zm1.002-2.834c.774 0 1.446-.152 2.014-.458a3.387 3.387 0 0 0 1.31-1.235 3.148 3.148 0 0 0 .469-1.673v-1.928c-.12.1-.327.191-.618.277-.284.085-.604.16-.959.223-.355.064-.706.121-1.055.17l-.905.129a6.735 6.735 0 0 0-1.545.383c-.454.178-.813.426-1.076.746-.263.313-.394.717-.394 1.215 0 .71.26 1.246.778 1.608.518.362 1.179.543 1.981.543ZM89.56 29V12.636h3.686v2.78h.192c.34-.937.905-1.668 1.693-2.194.789-.532 1.73-.799 2.823-.799 1.109 0 2.042.27 2.802.81.767.533 1.307 1.26 1.62 2.184h.17c.362-.91.973-1.634 1.833-2.173.866-.547 1.892-.82 3.078-.82 1.506 0 2.735.475 3.686 1.427.952.952 1.428 2.34 1.428 4.165V29h-3.867V18.613c0-1.016-.27-1.758-.81-2.227-.54-.475-1.2-.713-1.981-.713-.931 0-1.659.29-2.184.873-.519.575-.778 1.325-.778 2.248V29h-3.782V18.453c0-.845-.256-1.52-.767-2.024-.504-.504-1.165-.756-1.981-.756-.555 0-1.059.142-1.513.426a2.973 2.973 0 0 0-1.087 1.182c-.27.505-.405 1.094-.405 1.769V29H89.56Zm26.923 0V12.636h3.687v2.78h.191c.341-.937.906-1.668 1.694-2.194.789-.532 1.73-.799 2.823-.799 1.108 0 2.042.27 2.802.81.767.533 1.307 1.26 1.62 2.184h.17c.362-.91.973-1.634 1.832-2.173.867-.547 1.893-.82 3.079-.82 1.506 0 2.735.475 3.686 1.427.952.952 1.428 2.34 1.428 4.165V29h-3.867V18.613c0-1.016-.27-1.758-.81-2.227-.54-.475-1.2-.713-1.982-.713-.93 0-1.658.29-2.183.873-.519.575-.778 1.325-.778 2.248V29h-3.782V18.453c0-.845-.256-1.52-.767-2.024-.504-.504-1.165-.756-1.982-.756-.554 0-1.058.142-1.513.426a2.976 2.976 0 0 0-1.086 1.182c-.27.505-.405 1.094-.405 1.769V29h-3.857Zm31.633.33c-1.037 0-1.971-.184-2.802-.554a4.57 4.57 0 0 1-1.96-1.662c-.476-.731-.714-1.633-.714-2.706 0-.923.171-1.686.512-2.29a3.96 3.96 0 0 1 1.395-1.449 7.054 7.054 0 0 1 1.992-.82c.746-.192 1.517-.33 2.312-.416.959-.1 1.737-.188 2.333-.266.597-.085 1.03-.213 1.3-.384.277-.177.416-.45.416-.82V17.9c0-.802-.238-1.424-.714-1.864-.476-.44-1.161-.66-2.056-.66-.945 0-1.694.205-2.248.617-.547.412-.916.899-1.108 1.46l-3.601-.512c.284-.994.753-1.825 1.406-2.493a6.126 6.126 0 0 1 2.397-1.512c.945-.341 1.989-.512 3.132-.512.789 0 1.573.093 2.355.277a6.62 6.62 0 0 1 2.141.917c.646.418 1.165.99 1.555 1.715.398.724.597 1.63.597 2.716V29h-3.707v-2.248h-.128c-.235.455-.565.88-.991 1.279-.419.39-.948.706-1.587.948-.632.234-1.375.351-2.227.351Zm1.002-2.834c.774 0 1.445-.152 2.013-.458a3.385 3.385 0 0 0 1.31-1.235 3.144 3.144 0 0 0 .469-1.673v-1.928c-.121.1-.327.191-.618.277-.284.085-.603.16-.959.223-.355.064-.706.121-1.054.17l-.906.129a6.748 6.748 0 0 0-1.545.383c-.454.178-.813.426-1.076.746-.262.313-.394.717-.394 1.215 0 .71.26 1.246.778 1.608.518.362 1.179.543 1.982.543ZM160.634 29V12.636h3.739v2.728h.171c.298-.945.809-1.673 1.534-2.184.731-.519 1.566-.778 2.503-.778.213 0 .451.01.714.032.27.014.494.039.671.075v3.547c-.163-.057-.422-.106-.777-.149a7.153 7.153 0 0 0-1.013-.075c-.703 0-1.335.153-1.896.459a3.348 3.348 0 0 0-1.31 1.246c-.32.533-.48 1.147-.48 1.843V29h-3.856Zm15.751-21.818V29h-3.857V7.182h3.857Zm6.363 27.954a7.808 7.808 0 0 1-1.46-.128 5.413 5.413 0 0 1-1.055-.277l.895-3.004c.561.164 1.062.242 1.503.235.44-.008.827-.146 1.161-.416.341-.263.628-.703.863-1.32l.33-.885-5.934-16.705h4.091l3.771 12.358h.171l3.782-12.358h4.101l-6.552 18.346c-.305.866-.71 1.608-1.214 2.226a4.933 4.933 0 0 1-1.854 1.428c-.724.333-1.591.5-2.599.5Z"/></svg>