<svg xmlns="http://www.w3.org/2000/svg" width="201" height="36" fill="none"><path fill="#A6A6A6" d="M46.104 7.182V29h-3.952V7.182h3.952Zm22.21 0V29H64.8L54.518 14.139h-.181V29h-3.953V7.182h3.537l10.27 14.872h.192V7.182h3.931Zm3.348 3.313V7.182H89.07v3.313h-6.744V29h-3.92V10.495h-6.744ZM92.425 29V7.182h14.191v3.313H96.378v5.923h9.503v3.314h-9.503v5.955H106.7V29H92.425Zm18.223 0V7.182h8.182c1.676 0 3.082.291 4.219.873 1.143.583 2.006 1.4 2.588 2.45.59 1.045.885 2.263.885 3.655 0 1.399-.299 2.613-.895 3.643-.59 1.023-1.46 1.815-2.61 2.376-1.151.554-2.564.83-4.24.83h-5.828v-3.28h5.295c.98 0 1.783-.135 2.408-.405.625-.277 1.086-.678 1.385-1.204.305-.533.458-1.186.458-1.96s-.153-1.435-.458-1.982c-.306-.554-.771-.973-1.396-1.257-.625-.291-1.431-.437-2.418-.437H114.6V29h-3.952Zm11.271-9.886L127.321 29h-4.411l-5.305-9.886h4.314Zm26.916-4.57h-3.984a4.955 4.955 0 0 0-.629-1.737 4.658 4.658 0 0 0-1.14-1.3 4.748 4.748 0 0 0-1.555-.799 6.066 6.066 0 0 0-1.864-.277c-1.186 0-2.238.298-3.154.895-.916.59-1.633 1.456-2.152 2.6-.518 1.136-.777 2.524-.777 4.165 0 1.669.259 3.075.777 4.219.526 1.136 1.243 1.995 2.152 2.578.916.575 1.964.863 3.143.863.653 0 1.264-.085 1.832-.256a5.003 5.003 0 0 0 1.545-.778c.462-.34.849-.76 1.161-1.257.32-.497.54-1.065.661-1.704l3.984.021a8.579 8.579 0 0 1-.969 2.919 8.611 8.611 0 0 1-1.928 2.408 8.895 8.895 0 0 1-2.792 1.619c-1.065.384-2.248.575-3.547.575-1.918 0-3.63-.444-5.135-1.331-1.506-.888-2.692-2.17-3.558-3.846-.867-1.676-1.3-3.686-1.3-6.03 0-2.35.437-4.36 1.31-6.03.874-1.676 2.063-2.958 3.569-3.846 1.506-.888 3.21-1.331 5.114-1.331 1.214 0 2.343.17 3.388.51a8.68 8.68 0 0 1 2.791 1.503 7.996 7.996 0 0 1 2.013 2.408c.533.944.881 2.024 1.044 3.238Zm23.115 3.547c0 2.35-.44 4.364-1.321 6.04-.873 1.67-2.066 2.948-3.579 3.836-1.506.887-3.214 1.331-5.124 1.331-1.911 0-3.623-.444-5.135-1.331-1.506-.895-2.699-2.177-3.58-3.846-.873-1.676-1.31-3.686-1.31-6.03 0-2.35.437-4.36 1.31-6.03.881-1.676 2.074-2.958 3.58-3.846 1.512-.888 3.224-1.331 5.135-1.331 1.91 0 3.618.443 5.124 1.331 1.513.888 2.706 2.17 3.579 3.846.881 1.67 1.321 3.68 1.321 6.03Zm-3.973 0c0-1.655-.259-3.05-.778-4.187-.511-1.143-1.222-2.006-2.131-2.589-.909-.59-1.956-.884-3.142-.884s-2.234.295-3.143.884c-.909.583-1.623 1.446-2.141 2.59-.512 1.136-.768 2.531-.768 4.186 0 1.655.256 3.054.768 4.197.518 1.137 1.232 2 2.141 2.59.909.581 1.957.873 3.143.873 1.186 0 2.233-.292 3.142-.874.909-.59 1.62-1.452 2.131-2.589.519-1.143.778-2.542.778-4.197Zm7.71-10.91h4.837l6.477 15.81h.256l6.477-15.81h4.837V29h-3.793V14.01h-.202l-6.03 14.926h-2.834l-6.03-14.957h-.202V29h-3.793V7.182Z"/><rect width="30" height="30" y="3" fill="#A6A6A6" rx="3"/><path fill="#fff" d="M4 10h2v12H4zM9 7h2v18H9zM14 7h2v18h-2zM19 7h2v18h-2z"/><path stroke="#fff" stroke-linecap="round" stroke-width="2" d="M5 27c2.833 2.264 11 5.433 21 0"/><path fill="#fff" d="M24 10h2v12h-2z"/></svg>