<svg xmlns="http://www.w3.org/2000/svg" width="180" height="38" fill="none"><path fill="#A6A6A6" d="M60.2 9.182h3.953v14.254c0 1.563-.37 2.937-1.108 4.123-.732 1.186-1.761 2.113-3.09 2.78-1.328.661-2.88.991-4.655.991-1.783 0-3.338-.33-4.666-.99-1.328-.668-2.358-1.595-3.09-2.781-.731-1.186-1.097-2.56-1.097-4.123V9.182h3.952v13.924c0 .909.2 1.719.597 2.429.405.71.973 1.268 1.704 1.672.732.398 1.598.597 2.6.597 1.001 0 1.868-.199 2.6-.597a4.248 4.248 0 0 0 1.704-1.672c.398-.71.596-1.52.596-2.43V9.183Zm11.935 12.23V31h-3.857V14.636h3.686v2.78h.192a4.677 4.677 0 0 1 1.8-2.183c.832-.54 1.858-.81 3.08-.81 1.129 0 2.112.242 2.95.725.846.483 1.5 1.182 1.96 2.098.47.917.7 2.028.693 3.335V31h-3.856v-9.822c0-1.094-.284-1.95-.853-2.568-.56-.618-1.338-.927-2.333-.927-.674 0-1.275.15-1.8.448a3.102 3.102 0 0 0-1.225 1.267c-.291.554-.437 1.226-.437 2.014Zm27.358-2.45-3.516.383a2.826 2.826 0 0 0-.522-1.001 2.59 2.59 0 0 0-.98-.757c-.412-.191-.916-.287-1.513-.287-.802 0-1.477.174-2.024.522-.54.348-.806.799-.799 1.353-.007.476.167.863.522 1.16.362.3.959.544 1.79.736l2.791.597c1.548.333 2.7.863 3.452 1.587.76.724 1.143 1.673 1.15 2.844-.007 1.03-.308 1.94-.905 2.728-.59.781-1.41 1.392-2.461 1.832-1.051.44-2.258.66-3.622.66-2.003 0-3.615-.418-4.837-1.256-1.221-.846-1.95-2.021-2.184-3.527l3.76-.362c.171.739.534 1.296 1.088 1.673.553.376 1.274.564 2.162.564.916 0 1.651-.188 2.205-.564.562-.377.842-.842.842-1.396 0-.469-.181-.856-.543-1.161-.355-.306-.91-.54-1.662-.703L90.896 24c-1.57-.327-2.731-.877-3.484-1.652-.753-.78-1.126-1.768-1.119-2.961-.007-1.009.267-1.882.82-2.621.562-.746 1.34-1.321 2.334-1.726 1.001-.412 2.155-.618 3.462-.618 1.918 0 3.427.409 4.528 1.225 1.108.817 1.793 1.922 2.056 3.314Zm3.532 18.174v-22.5h3.792v2.706h.224a7.11 7.11 0 0 1 .841-1.267c.363-.455.853-.842 1.471-1.162.618-.326 1.406-.49 2.365-.49 1.264 0 2.404.323 3.419.97 1.023.639 1.833 1.587 2.429 2.844.604 1.25.906 2.784.906 4.603 0 1.796-.295 3.323-.884 4.58-.59 1.258-1.392 2.216-2.408 2.877-1.016.66-2.166.99-3.452.99-.937 0-1.715-.156-2.333-.468-.618-.313-1.115-.689-1.491-1.13a7.275 7.275 0 0 1-.863-1.267h-.16v8.714h-3.856Zm3.781-14.318c0 1.058.15 1.985.448 2.78.305.796.742 1.418 1.31 1.865.576.44 1.272.66 2.088.66.853 0 1.566-.227 2.142-.681.575-.462 1.008-1.09 1.299-1.886.299-.802.448-1.715.448-2.738 0-1.015-.146-1.917-.437-2.706-.291-.788-.724-1.406-1.3-1.853-.575-.448-1.292-.672-2.152-.672-.824 0-1.523.217-2.098.65-.576.434-1.012 1.04-1.311 1.822-.291.781-.437 1.7-.437 2.76Zm18.825-13.636V31h-3.856V9.182h3.856Zm8.675 22.148c-1.037 0-1.971-.184-2.802-.554a4.565 4.565 0 0 1-1.96-1.662c-.476-.731-.714-1.633-.714-2.706 0-.923.17-1.686.511-2.29a3.955 3.955 0 0 1 1.396-1.449 7.03 7.03 0 0 1 1.992-.82c.746-.192 1.516-.33 2.312-.416.958-.1 1.736-.188 2.333-.266.596-.085 1.03-.213 1.299-.384.277-.177.416-.45.416-.82V19.9c0-.802-.238-1.424-.714-1.864-.476-.44-1.161-.66-2.056-.66-.945 0-1.694.205-2.248.617-.547.412-.916.899-1.108 1.46l-3.601-.512c.284-.994.753-1.825 1.407-2.493.653-.674 1.452-1.178 2.397-1.512.944-.341 1.988-.512 3.132-.512.788 0 1.573.093 2.354.277.781.185 1.495.49 2.142.917.646.418 1.164.99 1.555 1.715.398.724.596 1.63.596 2.716V31h-3.707v-2.248h-.128c-.234.455-.564.88-.991 1.279-.419.39-.948.706-1.587.948-.632.234-1.374.351-2.226.351Zm1.001-2.834c.774 0 1.445-.152 2.013-.458a3.388 3.388 0 0 0 1.311-1.235 3.153 3.153 0 0 0 .469-1.673v-1.928c-.121.1-.327.191-.618.277-.284.085-.604.16-.959.223-.355.064-.707.121-1.055.17l-.905.129a6.722 6.722 0 0 0-1.545.383c-.455.178-.813.426-1.076.746-.263.313-.394.717-.394 1.215 0 .71.259 1.246.777 1.608.519.362 1.179.543 1.982.543Zm24.45-9.534-3.516.383a2.81 2.81 0 0 0-.522-1.001 2.594 2.594 0 0 0-.98-.757c-.412-.191-.916-.287-1.513-.287-.803 0-1.477.174-2.024.522-.54.348-.806.799-.799 1.353-.007.476.167.863.522 1.16.362.3.959.544 1.79.736l2.791.597c1.548.333 2.699.863 3.452 1.587.76.724 1.143 1.673 1.15 2.844-.007 1.03-.309 1.94-.905 2.728-.59.781-1.41 1.392-2.461 1.832-1.051.44-2.259.66-3.623.66-2.002 0-3.615-.418-4.836-1.256-1.222-.846-1.95-2.021-2.184-3.527l3.761-.362c.17.739.532 1.296 1.086 1.673.554.376 1.275.564 2.163.564.916 0 1.651-.188 2.205-.564.561-.377.842-.842.842-1.396 0-.469-.181-.856-.544-1.161-.355-.306-.909-.54-1.662-.703L151.159 24c-1.569-.327-2.731-.877-3.483-1.652-.753-.78-1.126-1.768-1.119-2.961-.007-1.009.266-1.882.82-2.621.561-.746 1.339-1.321 2.333-1.726 1.002-.412 2.156-.618 3.463-.618 1.917 0 3.427.409 4.527 1.225 1.108.817 1.794 1.922 2.057 3.314Zm7.388 2.45V31h-3.857V9.182h3.771v8.235h.192c.384-.923.977-1.651 1.779-2.184.81-.54 1.84-.81 3.09-.81 1.136 0 2.127.238 2.972.714.845.476 1.499 1.172 1.96 2.088.469.916.704 2.035.704 3.356V31h-3.857v-9.822c0-1.101-.284-1.957-.852-2.568-.561-.618-1.35-.927-2.365-.927-.682 0-1.293.15-1.833.448a3.14 3.14 0 0 0-1.257 1.267c-.298.554-.447 1.226-.447 2.014ZM11 0h12v9H11zM0 23h34v9H0z"/><path fill="#A6A6A6" d="M24 14h10v18H24zM0 14h10v18H0z"/></svg>